<mxfile host="65bd71144e">
    <diagram id="mZvsnjqoLRH4r0OLqSjg" name="Page-1">
        <mxGraphModel dx="3474" dy="2271" grid="1" gridSize="10" guides="1" tooltips="1" connect="1" arrows="1" fold="1" page="1" pageScale="1" pageWidth="120000" pageHeight="1600000" math="0" shadow="0">
            <root>
                <mxCell id="0"/>
                <mxCell id="1" parent="0"/>
                <mxCell id="38" value="Start" style="whiteSpace=wrap;html=1;" parent="1" vertex="1">
                    <mxGeometry x="10" y="280" width="200" height="40" as="geometry"/>
                </mxCell>
                <mxCell id="41" value="Tokenizer" style="whiteSpace=wrap;html=1;gradientColor=none;labelBackgroundColor=none;" parent="1" vertex="1">
                    <mxGeometry x="10" y="730" width="200" height="40" as="geometry"/>
                </mxCell>
                <mxCell id="51" value="" style="shape=singleArrow;direction=south;whiteSpace=wrap;html=1;" parent="1" vertex="1">
                    <mxGeometry x="70" y="820" width="60" height="760" as="geometry"/>
                </mxCell>
                <mxCell id="55" value="Syntax Checker" style="whiteSpace=wrap;html=1;" parent="1" vertex="1">
                    <mxGeometry x="20" y="1640" width="200" height="40" as="geometry"/>
                </mxCell>
                <mxCell id="62" value="Variable Expander" style="whiteSpace=wrap;html=1;" parent="1" vertex="1">
                    <mxGeometry y="2560" width="200" height="40" as="geometry"/>
                </mxCell>
                <mxCell id="63" value="" style="shape=singleArrow;direction=south;whiteSpace=wrap;html=1;" parent="1" vertex="1">
                    <mxGeometry x="80" y="340" width="60" height="360" as="geometry"/>
                </mxCell>
                <mxCell id="JSIfVcJBrstOBiRPBiyM-64" value="Parser" style="whiteSpace=wrap;html=1;" parent="1" vertex="1">
                    <mxGeometry y="3440" width="240" height="40" as="geometry"/>
                </mxCell>
                <mxCell id="JSIfVcJBrstOBiRPBiyM-74" value="&lt;h4 data-start=&quot;296&quot; data-end=&quot;334&quot;&gt;┌─────────────────────────────┐&lt;/h4&gt;&#xa;&lt;h4 data-start=&quot;335&quot; data-end=&quot;388&quot;&gt;│ 1. Read Input               │ → &lt;code data-start=&quot;374&quot; data-end=&quot;386&quot;&gt;char *line&lt;/code&gt;&lt;/h4&gt;&#xa;&lt;h4 data-start=&quot;389&quot; data-end=&quot;427&quot;&gt;└─────────────────────────────┘&lt;/h4&gt;" style="text;whiteSpace=wrap;html=1;" parent="1" vertex="1">
                    <mxGeometry x="360" y="220" width="300" height="190" as="geometry"/>
                </mxCell>
                <mxCell id="JSIfVcJBrstOBiRPBiyM-77" value="&lt;li data-start=&quot;428&quot; data-end=&quot;462&quot;&gt;&lt;p data-start=&quot;430&quot; data-end=&quot;462&quot;&gt;Uses &lt;code data-start=&quot;435&quot; data-end=&quot;460&quot;&gt;readline(&quot;minishell$ &quot;)&lt;/code&gt;&lt;/p&gt;&#xa;&lt;/li&gt;&#xa;&lt;li data-start=&quot;463&quot; data-end=&quot;509&quot;&gt;&#xa;&lt;p data-start=&quot;465&quot; data-end=&quot;509&quot;&gt;Adds line to history (&lt;code data-start=&quot;487&quot; data-end=&quot;506&quot;&gt;add_history(line)&lt;/code&gt;)&lt;/p&gt;&#xa;&lt;/li&gt;&#xa;&lt;li data-start=&quot;510&quot; data-end=&quot;551&quot;&gt;&#xa;&lt;p data-start=&quot;512&quot; data-end=&quot;551&quot;&gt;Handles Ctrl+D (EOF) → exit minishell&lt;/p&gt;&#xa;&lt;/li&gt;&#xa;&lt;li data-start=&quot;552&quot; data-end=&quot;589&quot;&gt;&#xa;&lt;p data-start=&quot;554&quot; data-end=&quot;589&quot;&gt;Result: raw string line from user&lt;/p&gt;&lt;/li&gt;" style="text;whiteSpace=wrap;html=1;" parent="1" vertex="1">
                    <mxGeometry x="920" y="160" width="240" height="340" as="geometry"/>
                </mxCell>
                <mxCell id="JSIfVcJBrstOBiRPBiyM-81" value="" style="shape=singleArrow;whiteSpace=wrap;html=1;" parent="1" vertex="1">
                    <mxGeometry x="240" y="270" width="100" height="60" as="geometry"/>
                </mxCell>
                <mxCell id="JSIfVcJBrstOBiRPBiyM-88" value="" style="curved=1;endArrow=classic;html=1;exitX=1.003;exitY=0.311;exitDx=0;exitDy=0;exitPerimeter=0;" parent="1" edge="1">
                    <mxGeometry width="50" height="50" relative="1" as="geometry">
                        <mxPoint x="640.0000000000001" y="289.0899999999999" as="sourcePoint"/>
                        <mxPoint x="910" y="180" as="targetPoint"/>
                        <Array as="points">
                            <mxPoint x="660" y="260"/>
                            <mxPoint x="689.1" y="240"/>
                        </Array>
                    </mxGeometry>
                </mxCell>
                <mxCell id="JSIfVcJBrstOBiRPBiyM-89" value="" style="curved=1;endArrow=classic;html=1;exitX=1;exitY=0.5;exitDx=0;exitDy=0;" parent="1" source="JSIfVcJBrstOBiRPBiyM-74" edge="1">
                    <mxGeometry width="50" height="50" relative="1" as="geometry">
                        <mxPoint x="670" y="349" as="sourcePoint"/>
                        <mxPoint x="909" y="270" as="targetPoint"/>
                        <Array as="points">
                            <mxPoint x="720" y="315"/>
                        </Array>
                    </mxGeometry>
                </mxCell>
                <mxCell id="JSIfVcJBrstOBiRPBiyM-90" value="" style="curved=1;endArrow=classic;html=1;" parent="1" source="JSIfVcJBrstOBiRPBiyM-74" edge="1">
                    <mxGeometry width="50" height="50" relative="1" as="geometry">
                        <mxPoint x="670" y="330" as="sourcePoint"/>
                        <mxPoint x="900" y="360" as="targetPoint"/>
                        <Array as="points">
                            <mxPoint x="680" y="330"/>
                            <mxPoint x="730" y="355"/>
                        </Array>
                    </mxGeometry>
                </mxCell>
                <mxCell id="JSIfVcJBrstOBiRPBiyM-91" value="" style="curved=1;endArrow=classic;html=1;exitX=1;exitY=0.5;exitDx=0;exitDy=0;" parent="1" edge="1">
                    <mxGeometry width="50" height="50" relative="1" as="geometry">
                        <mxPoint x="650" y="350" as="sourcePoint"/>
                        <mxPoint x="910" y="440" as="targetPoint"/>
                        <Array as="points">
                            <mxPoint x="710" y="395"/>
                        </Array>
                    </mxGeometry>
                </mxCell>
                <mxCell id="JSIfVcJBrstOBiRPBiyM-95" value="" style="shape=singleArrow;whiteSpace=wrap;html=1;" parent="1" vertex="1">
                    <mxGeometry x="240" y="730" width="100" height="60" as="geometry"/>
                </mxCell>
                <mxCell id="JSIfVcJBrstOBiRPBiyM-96" value="&lt;h4 data-start=&quot;596&quot; data-end=&quot;634&quot;&gt;┌─────────────────────────────┐&lt;/h4&gt;&#xa;&lt;h4 data-start=&quot;635&quot; data-end=&quot;699&quot;&gt;│ 2. Tokenizer (Lexer)        │ → &lt;code data-start=&quot;674&quot; data-end=&quot;685&quot;&gt;t_token *&lt;/code&gt; linked list&lt;/h4&gt;&#xa;&lt;h4 data-start=&quot;700&quot; data-end=&quot;738&quot;&gt;└─────────────────────────────┘&lt;/h4&gt;" style="text;whiteSpace=wrap;html=1;" parent="1" vertex="1">
                    <mxGeometry x="360" y="665" width="300" height="190" as="geometry"/>
                </mxCell>
                <mxCell id="JSIfVcJBrstOBiRPBiyM-103" value="&lt;strong data-end=&quot;748&quot; data-start=&quot;739&quot;&gt;Goal:&lt;/strong&gt; Split input into a list of typed tokens&lt;br data-end=&quot;791&quot; data-start=&quot;788&quot;&gt;" style="whiteSpace=wrap;html=1;rounded=1;arcSize=50;align=center;verticalAlign=middle;strokeWidth=1;autosize=1;spacing=4;treeFolding=1;treeMoving=1;newEdgeStyle={&quot;edgeStyle&quot;:&quot;entityRelationEdgeStyle&quot;,&quot;startArrow&quot;:&quot;none&quot;,&quot;endArrow&quot;:&quot;none&quot;,&quot;segment&quot;:10,&quot;curved&quot;:1,&quot;sourcePerimeterSpacing&quot;:0,&quot;targetPerimeterSpacing&quot;:0};" parent="1" vertex="1">
                    <mxGeometry x="755" y="604" width="270" height="86" as="geometry"/>
                </mxCell>
                <mxCell id="JSIfVcJBrstOBiRPBiyM-104" value="" style="edgeStyle=entityRelationEdgeStyle;startArrow=none;endArrow=none;segment=10;curved=1;sourcePerimeterSpacing=0;targetPerimeterSpacing=0;" parent="1" source="JSIfVcJBrstOBiRPBiyM-96" target="JSIfVcJBrstOBiRPBiyM-103" edge="1">
                    <mxGeometry relative="1" as="geometry">
                        <mxPoint x="720" y="680" as="sourcePoint"/>
                    </mxGeometry>
                </mxCell>
                <mxCell id="JSIfVcJBrstOBiRPBiyM-107" value="" style="curved=1;endArrow=classic;html=1;exitX=1;exitY=0.5;exitDx=0;exitDy=0;" parent="1" edge="1">
                    <mxGeometry width="50" height="50" relative="1" as="geometry">
                        <mxPoint x="660" y="790" as="sourcePoint"/>
                        <mxPoint x="850" y="840" as="targetPoint"/>
                        <Array as="points">
                            <mxPoint x="720" y="835"/>
                        </Array>
                    </mxGeometry>
                </mxCell>
                <mxCell id="JSIfVcJBrstOBiRPBiyM-109" value="&lt;div style=&quot;color: rgb(204, 204, 204); background-color: rgb(31, 31, 31); font-family: &amp;quot;Droid Sans Mono&amp;quot;, &amp;quot;monospace&amp;quot;, monospace; font-size: 14px; line-height: 19px; white-space-collapse: preserve;&quot;&gt;&lt;div&gt;&lt;span style=&quot;color: rgb(204, 204, 204);&quot;&gt;For &lt;/span&gt;&lt;span style=&quot;color: rgb(156, 220, 254);&quot;&gt;each&lt;/span&gt;&lt;span style=&quot;color: rgb(204, 204, 204);&quot;&gt; character in line&lt;/span&gt;&lt;/div&gt;&lt;div&gt;&lt;span style=&quot;background-color: light-dark(rgb(31, 31, 31), rgb(210, 210, 210)); color: rgb(204, 204, 204);&quot;&gt;    ├─ &lt;/span&gt;&lt;span style=&quot;background-color: light-dark(rgb(31, 31, 31), rgb(210, 210, 210)); color: rgb(197, 134, 192);&quot;&gt;if&lt;/span&gt;&lt;span style=&quot;background-color: light-dark(rgb(31, 31, 31), rgb(210, 210, 210)); color: rgb(204, 204, 204);&quot;&gt; space        → skip&lt;/span&gt;&lt;/div&gt;&lt;div&gt;&lt;span style=&quot;color: rgb(204, 204, 204);&quot;&gt;&lt;span style=&quot;white-space: pre;&quot;&gt;&#x9;&lt;/span&gt;&lt;span style=&quot;white-space: pre;&quot;&gt;&#x9;&lt;/span&gt;&lt;span style=&quot;white-space: pre;&quot;&gt;&#x9;&lt;/span&gt;  ├─ &lt;/span&gt;&lt;span style=&quot;color: rgb(197, 134, 192);&quot;&gt;if&lt;/span&gt;&lt;span style=&quot;color: rgb(204, 204, 204);&quot;&gt; quote        → collect full quoted string &lt;/span&gt;&lt;/div&gt;&lt;div&gt;&lt;span style=&quot;color: rgb(204, 204, 204);&quot;&gt; &lt;span style=&quot;white-space: pre;&quot;&gt;&#x9;&lt;/span&gt;&lt;span style=&quot;white-space: pre;&quot;&gt;&#x9;&lt;span style=&quot;white-space: pre;&quot;&gt;&#x9;&lt;/span&gt;&lt;/span&gt;├─ &lt;/span&gt;&lt;span style=&quot;color: rgb(197, 134, 192);&quot;&gt;if&lt;/span&gt;&lt;span style=&quot;color: rgb(204, 204, 204);&quot;&gt; &lt;/span&gt;&lt;span style=&quot;color: rgb(212, 212, 212);&quot;&gt;&amp;gt;&lt;/span&gt;&lt;span style=&quot;color: rgb(204, 204, 204);&quot;&gt;, &lt;/span&gt;&lt;span style=&quot;color: rgb(212, 212, 212);&quot;&gt;&amp;gt;&amp;gt;&lt;/span&gt;&lt;span style=&quot;color: rgb(204, 204, 204);&quot;&gt;, &lt;/span&gt;&lt;span style=&quot;color: rgb(212, 212, 212);&quot;&gt;&amp;lt;&lt;/span&gt;&lt;span style=&quot;color: rgb(204, 204, 204);&quot;&gt;, &lt;/span&gt;&lt;span style=&quot;color: rgb(212, 212, 212);&quot;&gt;&amp;lt;&amp;lt;&lt;/span&gt;&lt;span style=&quot;color: rgb(204, 204, 204);&quot;&gt; → create redirection token&lt;/span&gt;&lt;/div&gt;&lt;div&gt;&lt;span style=&quot;color: rgb(204, 204, 204);&quot;&gt; &lt;span style=&quot;white-space: pre;&quot;&gt;&#x9;&lt;/span&gt;&lt;span style=&quot;white-space: pre;&quot;&gt;&#x9;&lt;/span&gt; ├─ &lt;/span&gt;&lt;span style=&quot;color: rgb(197, 134, 192);&quot;&gt;if&lt;/span&gt;&lt;span style=&quot;color: rgb(204, 204, 204);&quot;&gt; &lt;/span&gt;&lt;span style=&quot;color: rgb(212, 212, 212);&quot;&gt;|&lt;/span&gt;&lt;span style=&quot;color: rgb(204, 204, 204);&quot;&gt;            → create PIPE token&lt;/span&gt;&lt;/div&gt;&lt;div&gt;&lt;span style=&quot;color: rgb(204, 204, 204);&quot;&gt;                   └─ &lt;/span&gt;&lt;span style=&quot;color: rgb(197, 134, 192);&quot;&gt;else&lt;/span&gt;&lt;span style=&quot;color: rgb(204, 204, 204);&quot;&gt;            → collect a WORD token&lt;/span&gt;&lt;/div&gt;&lt;/div&gt;" style="text;html=1;align=center;verticalAlign=middle;resizable=0;points=[];autosize=1;strokeColor=none;fillColor=none;" parent="1" vertex="1">
                    <mxGeometry x="845" y="790" width="650" height="130" as="geometry"/>
                </mxCell>
                <mxCell id="JSIfVcJBrstOBiRPBiyM-110" value="" style="curved=1;endArrow=classic;html=1;exitX=1;exitY=0.5;exitDx=0;exitDy=0;" parent="1" edge="1">
                    <mxGeometry width="50" height="50" relative="1" as="geometry">
                        <mxPoint x="670" y="800" as="sourcePoint"/>
                        <mxPoint x="1100" y="1110" as="targetPoint"/>
                        <Array as="points">
                            <mxPoint x="720" y="970"/>
                        </Array>
                    </mxGeometry>
                </mxCell>
                <mxCell id="JSIfVcJBrstOBiRPBiyM-113" value="&lt;div style=&quot;color: rgb(204, 204, 204); background-color: rgb(31, 31, 31); font-family: &amp;quot;Droid Sans Mono&amp;quot;, &amp;quot;monospace&amp;quot;, monospace; font-size: 14px; line-height: 19px; white-space: pre;&quot;&gt;&lt;br&gt;&lt;div&gt;&lt;span style=&quot;color: rgb(204, 204, 204);&quot;&gt;   Token &lt;/span&gt;&lt;span style=&quot;color: rgb(156, 220, 254);&quot;&gt;types&lt;/span&gt;&lt;span style=&quot;color: rgb(204, 204, 204);&quot;&gt;:&lt;/span&gt;&lt;/div&gt;&lt;br&gt;&lt;div&gt;&lt;span style=&quot;color: rgb(220, 220, 170);&quot;&gt;              #==&amp;gt; WORD&lt;/span&gt;&lt;span style=&quot;color: rgb(204, 204, 204);&quot;&gt; (commands, args, or $VARs)&lt;/span&gt;&lt;/div&gt;&lt;br&gt;&lt;div&gt;&lt;span style=&quot;color: rgb(204, 204, 204);&quot;&gt;               #==&amp;gt; PIPE&lt;/span&gt;&lt;/div&gt;&lt;br&gt;&lt;div&gt;&lt;span style=&quot;color: rgb(204, 204, 204);&quot;&gt;               #==&amp;gt; REDIR_IN, REDIR_OUT, HEREDOC, REDIR_APPEND&lt;span style=&quot;white-space: pre;&quot;&gt;&#x9;&lt;/span&gt;    &lt;/span&gt;&lt;/div&gt;&lt;/div&gt;" style="text;whiteSpace=wrap;html=1;" parent="1" vertex="1">
                    <mxGeometry x="1149" y="1069" width="531" height="180" as="geometry"/>
                </mxCell>
                <mxCell id="JSIfVcJBrstOBiRPBiyM-120" value="" style="shape=singleArrow;whiteSpace=wrap;html=1;" parent="1" vertex="1">
                    <mxGeometry x="240" y="1630" width="100" height="60" as="geometry"/>
                </mxCell>
                <mxCell id="JSIfVcJBrstOBiRPBiyM-121" value="&lt;h4 data-start=&quot;1332&quot; data-end=&quot;1370&quot;&gt;┌─────────────────────────────┐&lt;/h4&gt;&#xa;&lt;h4 data-start=&quot;1371&quot; data-end=&quot;1426&quot;&gt;│ 3. Syntax Check             │ → Valid or error&lt;/h4&gt;&#xa;&lt;h4 data-start=&quot;1427&quot; data-end=&quot;1465&quot;&gt;└─────────────────────────────┘&lt;/h4&gt;" style="text;whiteSpace=wrap;html=1;" parent="1" vertex="1">
                    <mxGeometry x="360" y="1565" width="300" height="190" as="geometry"/>
                </mxCell>
                <mxCell id="JSIfVcJBrstOBiRPBiyM-122" value="&lt;strong data-end=&quot;1475&quot; data-start=&quot;1466&quot;&gt;Goal:&lt;/strong&gt; Ensure tokens form a valid shell grammar&lt;br data-end=&quot;1519&quot; data-start=&quot;1516&quot;&gt;" style="whiteSpace=wrap;html=1;rounded=1;arcSize=50;align=center;verticalAlign=middle;strokeWidth=1;autosize=1;spacing=4;treeFolding=1;treeMoving=1;newEdgeStyle={&quot;edgeStyle&quot;:&quot;entityRelationEdgeStyle&quot;,&quot;startArrow&quot;:&quot;none&quot;,&quot;endArrow&quot;:&quot;none&quot;,&quot;segment&quot;:10,&quot;curved&quot;:1,&quot;sourcePerimeterSpacing&quot;:0,&quot;targetPerimeterSpacing&quot;:0};" parent="1" vertex="1">
                    <mxGeometry x="710" y="1470" width="300" height="160" as="geometry"/>
                </mxCell>
                <mxCell id="JSIfVcJBrstOBiRPBiyM-123" value="" style="edgeStyle=entityRelationEdgeStyle;startArrow=none;endArrow=none;segment=10;curved=1;sourcePerimeterSpacing=0;targetPerimeterSpacing=0;exitX=0.987;exitY=0.358;exitDx=0;exitDy=0;exitPerimeter=0;" parent="1" source="JSIfVcJBrstOBiRPBiyM-121" target="JSIfVcJBrstOBiRPBiyM-122" edge="1">
                    <mxGeometry relative="1" as="geometry">
                        <mxPoint x="700" y="1640" as="sourcePoint"/>
                    </mxGeometry>
                </mxCell>
                <mxCell id="64" value="&lt;p data-end=&quot;1536&quot; data-start=&quot;1466&quot;&gt;&lt;span style=&quot;text-align: center; background-color: light-dark(#ffffff, var(--ge-dark-color, #121212));&quot;&gt;&lt;font style=&quot;color: light-dark(rgb(0, 0, 0), rgb(0, 204, 204));&quot;&gt;What we do:&lt;/font&gt;&lt;/span&gt;&lt;/p&gt;&lt;ul data-end=&quot;1709&quot; data-start=&quot;1537&quot; style=&quot;&quot;&gt;&lt;li data-end=&quot;1565&quot; data-start=&quot;1537&quot; style=&quot;&quot;&gt;&lt;p data-end=&quot;1565&quot; data-start=&quot;1539&quot; style=&quot;&quot;&gt;&lt;span style=&quot;background-color: light-dark(#ffffff, var(--ge-dark-color, #121212));&quot;&gt;&lt;font style=&quot;color: light-dark(rgb(0, 0, 0), rgb(0, 204, 204));&quot;&gt;No pipes at start or end&lt;/font&gt;&lt;/span&gt;&lt;/p&gt;&lt;/li&gt;&lt;li data-end=&quot;1610&quot; data-start=&quot;1566&quot; style=&quot;&quot;&gt;&lt;p data-end=&quot;1610&quot; data-start=&quot;1568&quot; style=&quot;&quot;&gt;&lt;span style=&quot;background-color: light-dark(#ffffff, var(--ge-dark-color, #121212));&quot;&gt;&lt;font style=&quot;color: light-dark(rgb(0, 0, 0), rgb(0, 204, 204));&quot;&gt;Redirection must be followed by a WORD&lt;/font&gt;&lt;/span&gt;&lt;/p&gt;&lt;/li&gt;&lt;li data-end=&quot;1635&quot; data-start=&quot;1611&quot; style=&quot;&quot;&gt;&lt;p data-end=&quot;1635&quot; data-start=&quot;1613&quot; style=&quot;&quot;&gt;&lt;span style=&quot;background-color: light-dark(#ffffff, var(--ge-dark-color, #121212));&quot;&gt;&lt;font style=&quot;color: light-dark(rgb(0, 0, 0), rgb(0, 204, 204));&quot;&gt;No double pipes ||&lt;/font&gt;&lt;/span&gt;&lt;/p&gt;&lt;/li&gt;&lt;li data-end=&quot;1667&quot; data-start=&quot;1636&quot; style=&quot;&quot;&gt;&lt;p data-end=&quot;1667&quot; data-start=&quot;1638&quot; style=&quot;&quot;&gt;&lt;span style=&quot;background-color: light-dark(#ffffff, var(--ge-dark-color, #121212));&quot;&gt;&lt;font style=&quot;color: light-dark(rgb(0, 0, 0), rgb(0, 204, 204));&quot;&gt;No lone redirection symbols&lt;/font&gt;&lt;/span&gt;&lt;/p&gt;&lt;/li&gt;&lt;li data-end=&quot;1709&quot; data-start=&quot;1668&quot; style=&quot;&quot;&gt;&lt;p data-end=&quot;1709&quot; data-start=&quot;1670&quot; style=&quot;&quot;&gt;&lt;span style=&quot;background-color: light-dark(#ffffff, var(--ge-dark-color, #121212));&quot;&gt;&lt;font style=&quot;color: light-dark(rgb(0, 0, 0), rgb(0, 204, 204));&quot;&gt;Detect unclosed quotes (from tokenizer)&lt;/font&gt;&lt;/span&gt;&lt;/p&gt;&lt;/li&gt;&lt;/ul&gt;&lt;p data-end=&quot;1770&quot; data-start=&quot;1711&quot; style=&quot;&quot;&gt;&lt;span style=&quot;background-color: light-dark(#ffffff, var(--ge-dark-color, #121212));&quot;&gt;&lt;font style=&quot;color: light-dark(rgb(0, 0, 0), rgb(0, 204, 204));&quot;&gt;&amp;nbsp; &amp;nbsp; &amp;nbsp; If invalid:&lt;br data-end=&quot;1729&quot; data-start=&quot;1726&quot;&gt;&lt;br&gt;&lt;span style=&quot;white-space: pre;&quot;&gt;&#x9;&lt;/span&gt;&lt;span style=&quot;white-space: pre;&quot;&gt;&#x9;&lt;/span&gt;&lt;span style=&quot;white-space: pre;&quot;&gt;&#x9;&lt;/span&gt;Print shell-style error and return NULL&lt;/font&gt;&lt;/span&gt;&lt;/p&gt;" style="text;whiteSpace=wrap;html=1;align=left;strokeColor=light-dark(#000000, #f9f5f5);" parent="1" vertex="1">
                    <mxGeometry x="810" y="1710" width="300" height="340" as="geometry"/>
                </mxCell>
                <mxCell id="65" value="" style="edgeStyle=entityRelationEdgeStyle;startArrow=none;endArrow=none;segment=10;curved=1;sourcePerimeterSpacing=0;targetPerimeterSpacing=0;exitX=0.987;exitY=0.358;exitDx=0;exitDy=0;exitPerimeter=0;" parent="1" edge="1">
                    <mxGeometry relative="1" as="geometry">
                        <mxPoint x="666" y="1643" as="sourcePoint"/>
                        <mxPoint x="790" y="1820" as="targetPoint"/>
                    </mxGeometry>
                </mxCell>
                <mxCell id="68" value="" style="shape=singleArrow;direction=south;whiteSpace=wrap;html=1;" parent="1" vertex="1">
                    <mxGeometry x="80" y="1740" width="60" height="760" as="geometry"/>
                </mxCell>
                <mxCell id="69" value="&lt;h4 data-start=&quot;1777&quot; data-end=&quot;1815&quot;&gt;┌─────────────────────────────┐&lt;/h4&gt;&#xa;&lt;h4 data-start=&quot;1816&quot; data-end=&quot;1871&quot;&gt;│ 4. Variable Expansion       │ → tokens updated&lt;/h4&gt;&#xa;&lt;h4 data-start=&quot;1872&quot; data-end=&quot;1910&quot;&gt;└─────────────────────────────┘&lt;/h4&gt;" style="text;whiteSpace=wrap;html=1;" parent="1" vertex="1">
                    <mxGeometry x="360" y="2500" width="300" height="190" as="geometry"/>
                </mxCell>
                <mxCell id="70" value="" style="shape=singleArrow;whiteSpace=wrap;html=1;" parent="1" vertex="1">
                    <mxGeometry x="240" y="2550" width="100" height="60" as="geometry"/>
                </mxCell>
                <mxCell id="71" value="&lt;strong data-end=&quot;1920&quot; data-start=&quot;1911&quot;&gt;Goal:&lt;/strong&gt; Expand &lt;code data-end=&quot;1934&quot; data-start=&quot;1928&quot;&gt;$VAR&lt;/code&gt; using environment" style="whiteSpace=wrap;html=1;rounded=1;arcSize=50;align=center;verticalAlign=middle;strokeWidth=1;autosize=1;spacing=4;treeFolding=1;treeMoving=1;newEdgeStyle={&quot;edgeStyle&quot;:&quot;entityRelationEdgeStyle&quot;,&quot;startArrow&quot;:&quot;none&quot;,&quot;endArrow&quot;:&quot;none&quot;,&quot;segment&quot;:10,&quot;curved&quot;:1,&quot;sourcePerimeterSpacing&quot;:0,&quot;targetPerimeterSpacing&quot;:0};" parent="1" vertex="1">
                    <mxGeometry x="755" y="2400" width="320" height="150" as="geometry"/>
                </mxCell>
                <mxCell id="77" value="" style="curved=1;endArrow=classic;html=1;exitX=0.997;exitY=0.426;exitDx=0;exitDy=0;exitPerimeter=0;" parent="1" source="69" edge="1">
                    <mxGeometry width="50" height="50" relative="1" as="geometry">
                        <mxPoint x="660" y="2540" as="sourcePoint"/>
                        <mxPoint x="750" y="2480" as="targetPoint"/>
                        <Array as="points">
                            <mxPoint x="710" y="2540"/>
                            <mxPoint x="660" y="2490"/>
                        </Array>
                    </mxGeometry>
                </mxCell>
                <mxCell id="79" value="&lt;p data-start=&quot;1911&quot; data-end=&quot;1972&quot;&gt;&lt;strong data-start=&quot;1955&quot; data-end=&quot;1970&quot;&gt;&lt;font style=&quot;color: light-dark(rgb(0, 0, 0), rgb(0, 255, 255));&quot;&gt;What we do:&lt;/font&gt;&lt;/strong&gt;&lt;/p&gt;&lt;ul data-start=&quot;1973&quot; data-end=&quot;2121&quot;&gt;&lt;li data-start=&quot;1973&quot; data-end=&quot;2007&quot;&gt;&lt;p data-start=&quot;1975&quot; data-end=&quot;2007&quot;&gt;&lt;font style=&quot;color: light-dark(rgb(0, 0, 0), rgb(0, 255, 255));&quot;&gt;Loop over all &lt;code data-start=&quot;1989&quot; data-end=&quot;2005&quot;&gt;t_token-&amp;gt;value&lt;/code&gt;&lt;/font&gt;&lt;/p&gt;&lt;/li&gt;&lt;li data-start=&quot;2008&quot; data-end=&quot;2047&quot;&gt;&lt;p data-start=&quot;2010&quot; data-end=&quot;2047&quot;&gt;&lt;font style=&quot;color: light-dark(rgb(0, 0, 0), rgb(0, 255, 255));&quot;&gt;Replace &lt;code data-start=&quot;2018&quot; data-end=&quot;2024&quot;&gt;$VAR&lt;/code&gt; with &lt;code data-start=&quot;2030&quot; data-end=&quot;2045&quot;&gt;getenv(&quot;VAR&quot;)&lt;/code&gt;&lt;/font&gt;&lt;/p&gt;&lt;/li&gt;&lt;li data-start=&quot;2048&quot; data-end=&quot;2084&quot;&gt;&lt;p data-start=&quot;2050&quot; data-end=&quot;2084&quot;&gt;&lt;font style=&quot;color: light-dark(rgb(0, 0, 0), rgb(0, 255, 255));&quot;&gt;Skip if inside &lt;code data-start=&quot;2065&quot; data-end=&quot;2082&quot;&gt;&#39;single quotes&#39;&lt;/code&gt;&lt;/font&gt;&lt;/p&gt;&lt;/li&gt;&lt;li data-start=&quot;2085&quot; data-end=&quot;2121&quot;&gt;&lt;p data-start=&quot;2087&quot; data-end=&quot;2121&quot;&gt;&lt;font style=&quot;color: light-dark(rgb(0, 0, 0), rgb(0, 255, 255));&quot;&gt;Do expand inside &lt;code data-start=&quot;2104&quot; data-end=&quot;2121&quot;&gt;&quot;double quotes&quot;&lt;/code&gt;&lt;/font&gt;&lt;/p&gt;&lt;/li&gt;&lt;/ul&gt;" style="text;whiteSpace=wrap;html=1;strokeColor=default;" parent="1" vertex="1">
                    <mxGeometry x="780" y="2690" width="270" height="230" as="geometry"/>
                </mxCell>
                <mxCell id="81" value="" style="endArrow=classic;html=1;" parent="1" edge="1">
                    <mxGeometry width="50" height="50" relative="1" as="geometry">
                        <mxPoint x="640" y="2650" as="sourcePoint"/>
                        <mxPoint x="740" y="2730" as="targetPoint"/>
                    </mxGeometry>
                </mxCell>
                <mxCell id="83" value="" style="endArrow=classic;html=1;" parent="1" edge="1">
                    <mxGeometry width="50" height="50" relative="1" as="geometry">
                        <mxPoint x="1060" y="2800" as="sourcePoint"/>
                        <mxPoint x="1350" y="2800" as="targetPoint"/>
                        <Array as="points"/>
                    </mxGeometry>
                </mxCell>
                <mxCell id="105" value="&lt;font style=&quot;color: light-dark(rgb(0, 0, 0), rgb(0, 204, 0));&quot;&gt;&lt;b style=&quot;&quot;&gt;&lt;font style=&quot;font-size: 18px;&quot;&gt;Examples&lt;/font&gt;&lt;/b&gt;:&lt;/font&gt;" style="edgeLabel;html=1;align=center;verticalAlign=middle;resizable=0;points=[];" parent="83" vertex="1" connectable="0">
                    <mxGeometry x="0.0414" y="-1" relative="1" as="geometry">
                        <mxPoint x="-21" as="offset"/>
                    </mxGeometry>
                </mxCell>
                <mxCell id="84" value="&#xa;  1 _  echo $USER → echo spider  &#xa;&#xa; &#xa;   2_ echo &quot;$HOME/file&quot; → /home/spider/file  &#xa;&#xa;&#xa;&#xa;    3_   echo &#39;$USER&#39;     → $USER (literal, no expand)" style="text;whiteSpace=wrap;strokeColor=default;fontColor=light-dark(#000000,#00FFFF);" parent="1" vertex="1">
                    <mxGeometry x="1360" y="2725" width="294.5" height="160" as="geometry"/>
                </mxCell>
                <mxCell id="85" value="" style="shape=singleArrow;direction=south;whiteSpace=wrap;html=1;" parent="1" vertex="1">
                    <mxGeometry x="70" y="2640" width="60" height="760" as="geometry"/>
                </mxCell>
                <mxCell id="86" value="" style="shape=singleArrow;whiteSpace=wrap;html=1;" parent="1" vertex="1">
                    <mxGeometry x="280" y="3430" width="100" height="60" as="geometry"/>
                </mxCell>
                <mxCell id="87" value="&lt;h4 data-start=&quot;2266&quot; data-end=&quot;2304&quot;&gt;┌─────────────────────────────┐&lt;/h4&gt;&#xa;&lt;h4 data-start=&quot;2305&quot; data-end=&quot;2365&quot;&gt;│ 5. Parser (→ t_and)     │ → full execution plan&lt;/h4&gt;&#xa;&lt;h4 data-start=&quot;2366&quot; data-end=&quot;2404&quot;&gt;└─────────────────────────────┘&lt;/h4&gt;" style="text;whiteSpace=wrap;html=1;" parent="1" vertex="1">
                    <mxGeometry x="435" y="3365" width="320" height="190" as="geometry"/>
                </mxCell>
                <mxCell id="88" value="&lt;strong data-end=&quot;2414&quot; data-start=&quot;2405&quot;&gt;Goal:&lt;/strong&gt; Convert token list into a list of commands to execute&lt;br data-end=&quot;2471&quot; data-start=&quot;2468&quot;&gt;" style="whiteSpace=wrap;html=1;rounded=1;arcSize=50;align=center;verticalAlign=middle;strokeWidth=1;autosize=1;spacing=4;treeFolding=1;treeMoving=1;newEdgeStyle={&quot;edgeStyle&quot;:&quot;entityRelationEdgeStyle&quot;,&quot;startArrow&quot;:&quot;none&quot;,&quot;endArrow&quot;:&quot;none&quot;,&quot;segment&quot;:10,&quot;curved&quot;:1,&quot;sourcePerimeterSpacing&quot;:0,&quot;targetPerimeterSpacing&quot;:0};" parent="1" vertex="1">
                    <mxGeometry x="810" y="3280" width="360" height="135" as="geometry"/>
                </mxCell>
                <mxCell id="89" value="" style="edgeStyle=entityRelationEdgeStyle;startArrow=none;endArrow=none;segment=10;curved=1;sourcePerimeterSpacing=0;targetPerimeterSpacing=0;" parent="1" source="87" target="88" edge="1">
                    <mxGeometry relative="1" as="geometry">
                        <mxPoint x="800" y="3462" as="sourcePoint"/>
                    </mxGeometry>
                </mxCell>
                <mxCell id="91" value="&lt;p data-start=&quot;2405&quot; data-end=&quot;2504&quot;&gt;&lt;font style=&quot;color: light-dark(rgb(0, 0, 0), rgb(0, 255, 255));&quot;&gt;&lt;strong style=&quot;&quot; data-start=&quot;2471&quot; data-end=&quot;2486&quot;&gt;&amp;nbsp; &amp;nbsp;What we do:&lt;/strong&gt;&lt;br data-start=&quot;2486&quot; data-end=&quot;2489&quot;&gt;&lt;br&gt;&lt;span style=&quot;white-space: pre;&quot;&gt;&#x9;&lt;/span&gt;For each token:&lt;/font&gt;&lt;/p&gt;&lt;ul data-start=&quot;2505&quot; data-end=&quot;2657&quot;&gt;&lt;li data-start=&quot;2505&quot; data-end=&quot;2533&quot;&gt;&lt;p data-start=&quot;2507&quot; data-end=&quot;2533&quot;&gt;&lt;font style=&quot;color: light-dark(rgb(0, 0, 0), rgb(0, 255, 255));&quot;&gt;&lt;code data-start=&quot;2507&quot; data-end=&quot;2513&quot;&gt;WORD&lt;/code&gt; → added to &lt;code data-start=&quot;2525&quot; data-end=&quot;2533&quot;&gt;args[]&lt;/code&gt;&lt;/font&gt;&lt;/p&gt;&lt;/li&gt;&lt;li data-start=&quot;2534&quot; data-end=&quot;2573&quot;&gt;&lt;p data-start=&quot;2536&quot; data-end=&quot;2573&quot;&gt;&lt;font style=&quot;color: light-dark(rgb(0, 0, 0), rgb(0, 255, 255));&quot;&gt;&lt;code data-start=&quot;2536&quot; data-end=&quot;2539&quot;&gt;&amp;gt;&lt;/code&gt; / &lt;code data-start=&quot;2542&quot; data-end=&quot;2546&quot;&gt;&amp;gt;&amp;gt;&lt;/code&gt; → sets &lt;code data-start=&quot;2554&quot; data-end=&quot;2563&quot;&gt;outfile&lt;/code&gt;, &lt;code data-start=&quot;2565&quot; data-end=&quot;2573&quot;&gt;append&lt;/code&gt;&lt;/font&gt;&lt;/p&gt;&lt;/li&gt;&lt;li data-start=&quot;2574&quot; data-end=&quot;2613&quot;&gt;&lt;p data-start=&quot;2576&quot; data-end=&quot;2613&quot;&gt;&lt;font style=&quot;color: light-dark(rgb(0, 0, 0), rgb(0, 255, 255));&quot;&gt;&lt;code data-start=&quot;2576&quot; data-end=&quot;2579&quot;&gt;&amp;lt;&lt;/code&gt; / &lt;code data-start=&quot;2582&quot; data-end=&quot;2586&quot;&gt;&amp;lt;&amp;lt;&lt;/code&gt; → sets &lt;code data-start=&quot;2594&quot; data-end=&quot;2602&quot;&gt;infile&lt;/code&gt;, &lt;code data-start=&quot;2604&quot; data-end=&quot;2613&quot;&gt;heredoc&lt;/code&gt;&lt;/font&gt;&lt;/p&gt;&lt;/li&gt;&lt;li data-start=&quot;2614&quot; data-end=&quot;2657&quot;&gt;&lt;p data-start=&quot;2616&quot; data-end=&quot;2657&quot;&gt;&lt;font style=&quot;color: light-dark(rgb(0, 0, 0), rgb(0, 255, 255));&quot;&gt;&lt;code style=&quot;&quot; data-start=&quot;2616&quot; data-end=&quot;2619&quot;&gt;|&lt;/code&gt; → end current &lt;code style=&quot;&quot; data-start=&quot;2634&quot; data-end=&quot;2645&quot;&gt;t_command&lt;/code&gt;, start nex&lt;/font&gt;&lt;/p&gt;&lt;/li&gt;&lt;/ul&gt;" style="text;whiteSpace=wrap;html=1;strokeColor=default;" parent="1" vertex="1">
                    <mxGeometry x="870" y="3530" width="290" height="260" as="geometry"/>
                </mxCell>
                <mxCell id="94" value="" style="endArrow=classic;html=1;" parent="1" edge="1">
                    <mxGeometry width="50" height="50" relative="1" as="geometry">
                        <mxPoint x="730" y="3510" as="sourcePoint"/>
                        <mxPoint x="850" y="3560" as="targetPoint"/>
                    </mxGeometry>
                </mxCell>
                <mxCell id="96" value="" style="endArrow=classic;html=1;" parent="1" edge="1">
                    <mxGeometry width="50" height="50" relative="1" as="geometry">
                        <mxPoint x="1200" y="3680" as="sourcePoint"/>
                        <mxPoint x="1490" y="3680" as="targetPoint"/>
                    </mxGeometry>
                </mxCell>
                <mxCell id="102" value="&lt;b&gt;&lt;font style=&quot;font-size: 17px; color: light-dark(rgb(0, 0, 0), rgb(0, 153, 0));&quot;&gt;Result structure:&lt;/font&gt;&lt;/b&gt;" style="edgeLabel;html=1;align=center;verticalAlign=middle;resizable=0;points=[];" parent="96" vertex="1" connectable="0">
                    <mxGeometry x="0.0276" y="-2" relative="1" as="geometry">
                        <mxPoint as="offset"/>
                    </mxGeometry>
                </mxCell>
                <mxCell id="107" value="  typedef struct s_command {&#xa;                         &#xa;            char **args;&#xa;            &#xa;            char *infile;&#xa;            &#xa;            char *outfile;&#xa;               &#xa;            int  append;&#xa;            &#xa;            int  heredoc;&#xa;    &#xa;            struct s_command *next;&#xa;} t_comma" style="text;whiteSpace=wrap;strokeColor=default;fontColor=light-dark(#000000,#00FFFF);" parent="1" vertex="1">
                    <mxGeometry x="1520" y="3600" width="330" height="230" as="geometry"/>
                </mxCell>
                <mxCell id="108" value="" style="shape=singleArrow;direction=south;whiteSpace=wrap;html=1;" parent="1" vertex="1">
                    <mxGeometry x="70" y="3520" width="60" height="760" as="geometry"/>
                </mxCell>
                <mxCell id="109" value="Cleanup " style="whiteSpace=wrap;html=1;" parent="1" vertex="1">
                    <mxGeometry x="20" y="4320" width="200" height="40" as="geometry"/>
                </mxCell>
                <mxCell id="110" value="" style="shape=singleArrow;whiteSpace=wrap;html=1;" parent="1" vertex="1">
                    <mxGeometry x="240" y="4310" width="100" height="60" as="geometry"/>
                </mxCell>
                <mxCell id="112" value="&lt;h4 data-start=&quot;3235&quot; data-end=&quot;3273&quot;&gt;┌─────────────────────────────┐&lt;/h4&gt;&lt;br&gt;&lt;h4 data-start=&quot;3274&quot; data-end=&quot;3330&quot;&gt;│ 6. Cleanup                  │ → free all memory&lt;/h4&gt;&lt;br&gt;&lt;h4 data-start=&quot;3331&quot; data-end=&quot;3369&quot;&gt;└─────────────────────────────┘&lt;/h4&gt;" style="text;whiteSpace=wrap;html=1;" parent="1" vertex="1">
                    <mxGeometry x="350" y="4250" width="300" height="190" as="geometry"/>
                </mxCell>
                <mxCell id="113" value="&lt;strong data-end=&quot;3379&quot; data-start=&quot;3370&quot;&gt;Goal:&lt;/strong&gt; Prepare for next user input&lt;br data-end=&quot;3410&quot; data-start=&quot;3407&quot;&gt;" style="whiteSpace=wrap;html=1;rounded=1;arcSize=50;align=center;verticalAlign=middle;strokeWidth=1;autosize=1;spacing=4;treeFolding=1;treeMoving=1;newEdgeStyle={&quot;edgeStyle&quot;:&quot;entityRelationEdgeStyle&quot;,&quot;startArrow&quot;:&quot;none&quot;,&quot;endArrow&quot;:&quot;none&quot;,&quot;segment&quot;:10,&quot;curved&quot;:1,&quot;sourcePerimeterSpacing&quot;:0,&quot;targetPerimeterSpacing&quot;:0};" parent="1" vertex="1">
                    <mxGeometry x="750" y="4220" width="330" height="100" as="geometry"/>
                </mxCell>
                <mxCell id="114" value="" style="edgeStyle=entityRelationEdgeStyle;startArrow=none;endArrow=none;segment=10;curved=1;sourcePerimeterSpacing=0;targetPerimeterSpacing=0;" parent="1" target="113" edge="1">
                    <mxGeometry relative="1" as="geometry">
                        <mxPoint x="640" y="4342" as="sourcePoint"/>
                    </mxGeometry>
                </mxCell>
                <mxCell id="115" value="&lt;p data-start=&quot;3370&quot; data-end=&quot;3425&quot;&gt;&lt;strong data-start=&quot;3410&quot; data-end=&quot;3425&quot;&gt;&lt;font style=&quot;color: light-dark(rgb(0, 0, 0), rgb(0, 255, 255));&quot;&gt;What we do:&lt;/font&gt;&lt;/strong&gt;&lt;/p&gt;&lt;ul data-start=&quot;3426&quot; data-end=&quot;3576&quot;&gt;&lt;li data-start=&quot;3426&quot; data-end=&quot;3459&quot;&gt;&lt;p data-start=&quot;3428&quot; data-end=&quot;3459&quot;&gt;&lt;font style=&quot;color: light-dark(rgb(0, 0, 0), rgb(0, 255, 255));&quot;&gt;Free &lt;code data-start=&quot;3433&quot; data-end=&quot;3439&quot;&gt;line&lt;/code&gt; from &lt;code data-start=&quot;3445&quot; data-end=&quot;3457&quot;&gt;readline()&lt;/code&gt;&lt;/font&gt;&lt;/p&gt;&lt;/li&gt;&lt;li data-start=&quot;3460&quot; data-end=&quot;3491&quot;&gt;&lt;p data-start=&quot;3462&quot; data-end=&quot;3491&quot;&gt;&lt;font style=&quot;color: light-dark(rgb(0, 0, 0), rgb(0, 255, 255));&quot;&gt;Free token list (&lt;code data-start=&quot;3479&quot; data-end=&quot;3488&quot;&gt;t_token&lt;/code&gt;)&lt;/font&gt;&lt;/p&gt;&lt;/li&gt;&lt;li data-start=&quot;3492&quot; data-end=&quot;3527&quot;&gt;&lt;p data-start=&quot;3494&quot; data-end=&quot;3527&quot;&gt;&lt;font style=&quot;color: light-dark(rgb(0, 0, 0), rgb(0, 255, 255));&quot;&gt;Free command list (&lt;code data-start=&quot;3513&quot; data-end=&quot;3524&quot;&gt;t_command&lt;/code&gt;)&lt;/font&gt;&lt;/p&gt;&lt;/li&gt;&lt;li data-start=&quot;3528&quot; data-end=&quot;3576&quot;&gt;&lt;p data-start=&quot;3530&quot; data-end=&quot;3576&quot;&gt;&lt;font style=&quot;color: light-dark(rgb(0, 0, 0), rgb(0, 255, 255));&quot;&gt;Free individual fields (&lt;code data-start=&quot;3554&quot; data-end=&quot;3561&quot;&gt;value&lt;/code&gt;, &lt;code data-start=&quot;3563&quot; data-end=&quot;3569&quot;&gt;args&lt;/code&gt;, etc.)&lt;/font&gt;&lt;/p&gt;&lt;/li&gt;&lt;/ul&gt;" style="text;whiteSpace=wrap;html=1;strokeColor=default;fillColor=default;" parent="1" vertex="1">
                    <mxGeometry x="785" y="4390" width="290" height="230" as="geometry"/>
                </mxCell>
                <mxCell id="116" value="" style="edgeStyle=entityRelationEdgeStyle;startArrow=none;endArrow=none;segment=10;curved=1;sourcePerimeterSpacing=0;targetPerimeterSpacing=0;" parent="1" edge="1">
                    <mxGeometry relative="1" as="geometry">
                        <mxPoint x="620" y="4392" as="sourcePoint"/>
                        <mxPoint x="780" y="4440" as="targetPoint"/>
                        <Array as="points">
                            <mxPoint x="760" y="4430"/>
                        </Array>
                    </mxGeometry>
                </mxCell>
            </root>
        </mxGraphModel>
    </diagram>
    <diagram id="bGoJrq7JR3_SGLEA9ctk" name="Page-2">
        <mxGraphModel dx="833" dy="795" grid="1" gridSize="10" guides="1" tooltips="1" connect="1" arrows="1" fold="1" page="1" pageScale="1" pageWidth="850" pageHeight="1100" math="0" shadow="0">
            <root>
                <mxCell id="0"/>
                <mxCell id="1" parent="0"/>
            </root>
        </mxGraphModel>
    </diagram>
    <diagram id="2pPBoGwRQ7k1di__zQC4" name="Page-3">
        <mxGraphModel dx="833" dy="795" grid="1" gridSize="10" guides="1" tooltips="1" connect="1" arrows="1" fold="1" page="1" pageScale="1" pageWidth="850" pageHeight="1100" math="0" shadow="0">
            <root>
                <mxCell id="0"/>
                <mxCell id="1" parent="0"/>
            </root>
        </mxGraphModel>
    </diagram>
</mxfile>